:FULLY-SPECIFIED
:FORCE-ALL-JOINTS-BE-3DOF
:DEGREES
577
root 7.06056 16.1345 -3.49456 -172.733 64.6062 -178.35
lfemur -21.2237 3.73179 -19.0373
ltibia 55.4304 -0 0
lfoot -38.1773 1.85245 -0.00390637
ltoes -4.28874 0 0
rfemur -49.6812 -7.46855 8.92244
rtibia 36.834 -0 0
rfoot 15.1293 11.2737 -0.121493
rtoes -38.4126 0 0
lowerback 8.05654 -0.868783 -1.99494
upperback 3.06701 -1.0786 4.23306
thorax -1.23778 -0.508558 5.60737
lowerneck -4.45322 -14.9662 -4.71357
upperneck 10.2868 -20.2268 5.90981
head 4.80539 -9.83958 1.3364
lclavicle 2.31212e-14 -1.80823e-14 0
lhumerus -46.9738 -12.3756 101.588
lradius 57.6984 -0 0
lwrist 22.5097 0 0
lhand -23.9263 -6.45363 -0.00215516
lfingers 7.12502 0 0
lthumb 4.32955 25.5676 -0.000900437
rclavicle 2.31212e-14 -1.80823e-14 0
rhumerus 28.3228 17.5965 -78.4417
rradius 136.938 -0 0
rwrist -46.3207 0 0
rhand -28.3678 -22.7911 5.70331e-05
rfingers 7.12502 0 0
rthumb 0.00633755 -54.3934 7.91246e-05
578
root 7.00319 16.1559 -3.48755 -171.817 66.9375 -178.095
lfemur -20.1731 3.69958 -18.2245
ltibia 52.999 -0 0
lfoot -36.6201 1.86819 -0.0129042
ltoes -4.13968 0 0
rfemur -47.7332 -7.08521 8.61705
rtibia 34.759 -0 0
rfoot 14.7865 10.9549 -0.148121
rtoes -36.9705 0 0
lowerback 7.66065 -0.850842 -1.92052
upperback 2.88751 -1.06672 4.02599
thorax -1.20453 -0.505976 5.34941
lowerneck -4.26963 -14.2974 -4.48336
upperneck 9.80317 -19.3303 5.58555
head 4.5838 -9.39589 1.26193
lclavicle 2.20237e-14 -1.61157e-14 0
lhumerus -45.2405 -12.3657 99.2017
lradius 55.5904 -0 0
lwrist 21.3769 0 0
lhand -22.8871 -6.24331 -0.00127106
lfingers 7.12502 0 0
lthumb 4.15383 24.4047 -0.000138806
rclavicle 2.20237e-14 -1.61157e-14 0
rhumerus 27.3076 17.3601 -75.7363
rradius 135.255 -0 0
rwrist -44.5046 0 0
rhand -27.1473 -21.8199 -0.00056179
rfingers 7.12502 0 0
rthumb 0.0270827 -52.3623 -0.000509036
579
root 6.94582 16.1774 -3.48053 -170.536 69.6088 -177.735
lfemur -19.1171 3.66894 -17.4047
ltibia 50.4772 -0 0
lfoot -35.0264 1.88549 -0.0214496
ltoes -3.98186 0 0
rfemur -45.7191 -6.70421 8.31176
rtibia 32.665 -0 0
rfoot 14.4271 10.6358 -0.175089
rtoes -35.4823 0 0
lowerback 7.26372 -0.832873 -1.84541
upperback 2.70815 -1.05453 3.81817
thorax -1.17065 -0.503158 5.09017
lowerneck -4.08619 -13.6225 -4.25202
upperneck 9.32091 -18.4233 5.26279
head 4.36204 -8.9491 1.1875
lclavicle 2.09263e-14 -1.41492e-14 0
lhumerus -43.4466 -12.3409 96.5385
lradius 53.3858 -0 0
lwrist 20.237 0 0
lhand -21.8322 -6.02778 -0.000159921
lfingers 7.12502 0 0
lthumb 3.98025 23.2304 0.000828622
rclavicle 2.09263e-14 -1.41492e-14 0
rhumerus 26.2714 17.0617 -72.8335
rradius 133.274 -0 0
rwrist -42.6363 0 0
rhand -25.9098 -20.8386 -0.00116452
rfingers 7.12502 0 0
rthumb 0.046618 -50.247 -0.00109894
580
root 6.88845 16.1988 -3.47352 -168.727 72.5226 -177.216
lfemur -18.1073 3.64624 -16.6241
ltibia 47.9945 -0 0
lfoot -33.4835 1.91388 -0.0291592
ltoes -3.82203 0 0
rfemur -43.7536 -6.34827 8.0304
rtibia 30.6691 -0 0
rfoot 14.0804 10.3366 -0.201931
rtoes -34.024 0 0
lowerback 6.88409 -0.816568 -1.77637
upperback 2.53673 -1.04416 3.61918
thorax -1.13809 -0.501109 4.84353
lowerneck -3.91431 -12.9777 -4.03141
upperneck 8.86771 -17.5548 4.95794
head 4.15267 -8.52305 1.11668
lclavicle 1.98288e-14 -1.21826e-14 0
lhumerus -41.6871 -12.3046 93.7239
lradius 51.2108 -0 0
lwrist 19.1502 0 0
lhand -20.8185 -5.8188 0.00117615
lfingers 7.12502 0 0
lthumb 3.82004 22.1105 0.00200765
rclavicle 1.98288e-14 -1.21826e-14 0
rhumerus 25.2798 16.7114 -69.8943
rradius 131.055 -0 0
rwrist -40.8225 0 0
rhand -24.723 -19.8999 -0.00172593
rfingers 7.12502 0 0
rthumb 0.0653886 -48.1681 -0.00166289
581
root 6.83109 16.2202 -3.46651 -166.163 75.517 -176.453
lfemur -17.1906 3.63814 -15.9256
ltibia 45.6831 -0 0
lfoot -32.0758 1.96259 -0.0357471
ltoes -3.66648 0 0
rfemur -41.9523 -6.03797 7.79512
rtibia 28.8796 -0 0
rfoot 13.7751 10.077 -0.228264
rtoes -32.6699 0 0
lowerback 6.53825 -0.803581 -1.7196
upperback 2.38008 -1.03777 3.43761
thorax -1.10871 -0.50085 4.62208
lowerneck -3.76437 -12.3961 -3.83211
upperneck 8.46833 -16.7703 4.68535
head 3.967 -8.13941 1.05263
lclavicle 1.87313e-14 -1.02161e-14 0
lhumerus -40.0567 -12.2668 90.9336
lradius 49.1981 -0 0
lwrist 18.1718 0 0
lhand -19.8988 -5.62744 0.00273943
lfingers 7.12502 0 0
lthumb 3.6835 21.1056 0.00340646
rclavicle 1.87313e-14 -1.02161e-14 0
rhumerus 24.3947 16.3318 -67.1053
rradius 128.719 -0 0
rwrist -39.1694 0 0
rhand -23.6506 -19.0531 -0.00222739
rfingers 7.12502 0 0
rthumb 0.0839102 -46.2498 -0.00217718
